# xmcd
#
# Track frame offsets:
#  150
#  7678
#  17165
#  27046
#  36688
#  48619
#  60357
#  72593
#  82576
#  93347
#  103875
#  113052
#  124619
#  135599
#  144752
#  153709
#  163981
#  175439
#  188093
#  200685
#  208005
#  215505
#  225538
#  235130
#  247634
#  263998
#  274447
#  286211
#  294409
#  308751
#  317800
#  329005
#
# Disc length: 4499 seconds
#
# Revision: 0
# Processed by: cddbd v1.5.2PL0 Copyright (c) Steve Scherf et al.
# Submitted via: AltoMP3_Maker 3.0
#
DISCID=d1119120
DTITLE=Various Artist - High on the Hog, Vol. 3
DYEAR=1900
DGENRE=
TTITLE0=Joe and Ray Shannon - Hobo Baby
TTITLE1=Eddie and Chuck - Boogie the Blues
TTITLE2=Bennie Hess - Country Style Boogie
TTITLE3=Jimmy Woodard - Go on and Leave
TTITLE4=Buddy Livingston - Back When She Was Young
TTITLE5=Alden Holloway - Woodpecker Love
TTITLE6=Reesa Lynn - Now He's Gone
TTITLE7=Johnny Stills - The Storm
TTITLE8=Jess Willard - I'm Telling You
TTITLE9=George Beck - Foolish Questions
TTITLE10=Billy Stoltz - I Can't Make up My Mind
TTITLE11=Jack Kingston - Road of Broken Hearts
TTITLE12=Sterling Blythe - Nothing but the Night
TTITLE13=Rusty Ridgel - Careless Lover
TTITLE14=Jacoby Bros - Warmed over Love
TTITLE15=Tommy Kizzian - Two Timing Kind
TTITLE16=Sonny LeBarron - Jack and Jill
TTITLE17=Jerry Gray - Heart's Breaking up over Love
TTITLE18=Tennessee Buck - Automobile Song
TTITLE19=Jimmie King - Pretty Little Baby
TTITLE20=unknown artist - I'm Coming Home
TTITLE21=Billy Mize - Pusan
TTITLE22=Eddie Grines - She Captured This Heart of Mine
TTITLE23=Alden Holloway - Red Rose of Arkansas
TTITLE24=Billy Stoltz - I've Been Everywhere
TTITLE25=Bob Cole - You Lied
TTITLE26=Curley Rash - Bubble Gum Boogie
TTITLE27=George Beck - Millie's Mine
TTITLE28=Mack McQuire - Mother-in-Law Blues
TTITLE29=Bennie Hess - Queen of Sylvan Beach
TTITLE30=Leo and Dot - I'm Nobody's Darlin' Now
TTITLE31=Gradie Joe - It's Blue Monday
EXTD=
EXTT0=
EXTT1=
EXTT2=
EXTT3=
EXTT4=
EXTT5=
EXTT6=
EXTT7=
EXTT8=
EXTT9=
EXTT10=
EXTT11=
EXTT12=
EXTT13=
EXTT14=
EXTT15=
EXTT16=
EXTT17=
EXTT18=
EXTT19=
EXTT20=
EXTT21=
EXTT22=
EXTT23=
EXTT24=
EXTT25=
EXTT26=
EXTT27=
EXTT28=
EXTT29=
EXTT30=
EXTT31=
PLAYORDER=
